<mxfile host="app.diagrams.net" agent="Mozilla/5.0 (Windows NT 10.0; Win64; x64; rv:143.0) Gecko/20100101 Firefox/143.0" version="28.2.7">
  <diagram name="Page-1" id="89xXIWMPDWdY5yrI6WPq">
    <mxGraphModel dx="1064" dy="605" grid="1" gridSize="10" guides="1" tooltips="1" connect="1" arrows="1" fold="1" page="1" pageScale="1" pageWidth="827" pageHeight="1169" math="0" shadow="0">
      <root>
        <mxCell id="0" />
        <mxCell id="1" parent="0" />
        <mxCell id="FNHXN5gUOuqcqyS2Xem4-55" value="Martin/client:Participant" style="shape=umlActor;verticalLabelPosition=bottom;verticalAlign=top;html=1;strokeColor=#0F8B8D;fontColor=#143642;fillColor=#FAE5C7;labelBackgroundColor=none;" parent="1" vertex="1">
          <mxGeometry x="100" y="200" width="30" height="60" as="geometry" />
        </mxCell>
        <mxCell id="FNHXN5gUOuqcqyS2Xem4-58" value="Instance/Rôle:Classe" style="shape=note2;boundedLbl=1;whiteSpace=wrap;html=1;size=25;verticalAlign=top;align=center;strokeColor=#006EAF;fontColor=#ffffff;fillColor=#1ba1e2;labelBackgroundColor=none;" parent="1" vertex="1">
          <mxGeometry x="10" y="40" width="150" height="60" as="geometry" />
        </mxCell>
        <mxCell id="FNHXN5gUOuqcqyS2Xem4-59" value="" style="endArrow=none;dashed=1;html=1;dashPattern=1 3;strokeWidth=2;rounded=0;strokeColor=#A8201A;fontColor=default;fillColor=#FAE5C7;entryX=0.323;entryY=0.981;entryDx=0;entryDy=0;entryPerimeter=0;labelBackgroundColor=none;" parent="1" target="FNHXN5gUOuqcqyS2Xem4-58" edge="1">
          <mxGeometry width="50" height="50" relative="1" as="geometry">
            <mxPoint x="70" y="270" as="sourcePoint" />
            <mxPoint x="440" y="250" as="targetPoint" />
          </mxGeometry>
        </mxCell>
        <mxCell id="FNHXN5gUOuqcqyS2Xem4-60" value=":Auth" style="html=1;whiteSpace=wrap;strokeColor=#0F8B8D;fontColor=#143642;fillColor=#FAE5C7;labelBackgroundColor=none;" parent="1" vertex="1">
          <mxGeometry x="330" y="210" width="110" height="50" as="geometry" />
        </mxCell>
        <mxCell id="FNHXN5gUOuqcqyS2Xem4-63" value="&amp;nbsp; &amp;nbsp; &amp;nbsp; &amp;nbsp;1 : logged := auth(usr, pwd)" style="html=1;verticalAlign=bottom;labelBackgroundColor=none;endArrow=block;endFill=1;endSize=6;align=left;rounded=0;strokeColor=#A8201A;fontColor=default;fillColor=#FAE5C7;entryX=0;entryY=0.5;entryDx=0;entryDy=0;" parent="1" source="FNHXN5gUOuqcqyS2Xem4-55" target="FNHXN5gUOuqcqyS2Xem4-60" edge="1">
          <mxGeometry x="-1" relative="1" as="geometry">
            <mxPoint x="330" y="270" as="sourcePoint" />
            <mxPoint x="490" y="270" as="targetPoint" />
          </mxGeometry>
        </mxCell>
        <mxCell id="FNHXN5gUOuqcqyS2Xem4-64" value=":Signature" style="html=1;whiteSpace=wrap;strokeColor=#0F8B8D;fontColor=#143642;fillColor=#FAE5C7;labelBackgroundColor=none;" parent="1" vertex="1">
          <mxGeometry x="330" y="290" width="110" height="50" as="geometry" />
        </mxCell>
        <mxCell id="FNHXN5gUOuqcqyS2Xem4-65" value="&amp;nbsp; 3 : signed := create_sign()" style="html=1;verticalAlign=bottom;labelBackgroundColor=none;endArrow=block;endFill=1;endSize=6;align=left;rounded=0;strokeColor=#A8201A;fontColor=default;fillColor=#FAE5C7;exitX=1;exitY=1;exitDx=0;exitDy=0;exitPerimeter=0;entryX=0;entryY=0.5;entryDx=0;entryDy=0;" parent="1" source="FNHXN5gUOuqcqyS2Xem4-55" target="FNHXN5gUOuqcqyS2Xem4-64" edge="1">
          <mxGeometry x="-1" relative="1" as="geometry">
            <mxPoint x="330" y="270" as="sourcePoint" />
            <mxPoint x="490" y="270" as="targetPoint" />
          </mxGeometry>
        </mxCell>
        <mxCell id="FNHXN5gUOuqcqyS2Xem4-66" value=":Fiche Présence" style="html=1;whiteSpace=wrap;strokeColor=#0F8B8D;fontColor=#143642;fillColor=#FAE5C7;labelBackgroundColor=none;" parent="1" vertex="1">
          <mxGeometry x="330" y="380" width="110" height="50" as="geometry" />
        </mxCell>
        <mxCell id="FNHXN5gUOuqcqyS2Xem4-67" value="&amp;nbsp; 4 [ signed ] : edited := sign()" style="html=1;verticalAlign=bottom;labelBackgroundColor=none;endArrow=block;endFill=1;endSize=6;align=left;rounded=0;strokeColor=#A8201A;fontColor=default;fillColor=#FAE5C7;entryX=0;entryY=0;entryDx=0;entryDy=0;" parent="1" target="FNHXN5gUOuqcqyS2Xem4-66" edge="1">
          <mxGeometry x="-1" relative="1" as="geometry">
            <mxPoint x="110" y="300" as="sourcePoint" />
            <mxPoint x="280" y="385" as="targetPoint" />
          </mxGeometry>
        </mxCell>
        <mxCell id="FNHXN5gUOuqcqyS2Xem4-68" value="&lt;div&gt;ici les intéractions son synchrones (flèches triangulaires pleines )&lt;/div&gt;&lt;div&gt;n° de séquence [condition d&#39;exec] : retour := nom_du message(params)&lt;/div&gt;" style="shape=note2;boundedLbl=1;whiteSpace=wrap;html=1;size=25;verticalAlign=top;align=left;strokeColor=#006EAF;fontColor=#ffffff;fillColor=#1ba1e2;labelBackgroundColor=none;" parent="1" vertex="1">
          <mxGeometry x="10" y="550" width="410" height="60" as="geometry" />
        </mxCell>
        <mxCell id="FNHXN5gUOuqcqyS2Xem4-70" value="" style="endArrow=none;dashed=1;html=1;dashPattern=1 3;strokeWidth=2;rounded=0;strokeColor=#A8201A;fontColor=default;fillColor=#FAE5C7;exitX=0.09;exitY=0.036;exitDx=0;exitDy=0;exitPerimeter=0;labelBackgroundColor=none;" parent="1" source="FNHXN5gUOuqcqyS2Xem4-68" edge="1">
          <mxGeometry width="50" height="50" relative="1" as="geometry">
            <mxPoint x="390" y="370" as="sourcePoint" />
            <mxPoint x="120" y="300" as="targetPoint" />
          </mxGeometry>
        </mxCell>
        <mxCell id="vyEBHbLYSBzzA642ARWU-1" value=":Home" style="html=1;whiteSpace=wrap;strokeColor=#0F8B8D;fontColor=#143642;fillColor=#FAE5C7;labelBackgroundColor=none;" parent="1" vertex="1">
          <mxGeometry x="600" y="210" width="110" height="50" as="geometry" />
        </mxCell>
        <mxCell id="vyEBHbLYSBzzA642ARWU-2" value="&amp;nbsp; &amp;nbsp; &amp;nbsp; &amp;nbsp;2 [logged] : redirect" style="html=1;verticalAlign=bottom;labelBackgroundColor=none;endArrow=block;endFill=1;endSize=6;align=left;rounded=0;strokeColor=#A8201A;fontColor=default;fillColor=#FAE5C7;entryX=0;entryY=0.5;entryDx=0;entryDy=0;exitX=1;exitY=0.5;exitDx=0;exitDy=0;" parent="1" source="FNHXN5gUOuqcqyS2Xem4-60" target="vyEBHbLYSBzzA642ARWU-1" edge="1">
          <mxGeometry x="-1" relative="1" as="geometry">
            <mxPoint x="270" y="220" as="sourcePoint" />
            <mxPoint x="470" y="225" as="targetPoint" />
          </mxGeometry>
        </mxCell>
        <mxCell id="b67990E_0dWuY1qgSYMJ-1" value=":Fiche Eval" style="html=1;whiteSpace=wrap;strokeColor=#0F8B8D;fontColor=#143642;fillColor=#FAE5C7;labelBackgroundColor=none;" vertex="1" parent="1">
          <mxGeometry x="330" y="460" width="110" height="50" as="geometry" />
        </mxCell>
        <mxCell id="b67990E_0dWuY1qgSYMJ-2" value="&amp;nbsp; 5 : evaluated := evalue()" style="html=1;verticalAlign=bottom;labelBackgroundColor=none;endArrow=block;endFill=1;endSize=6;align=left;rounded=0;strokeColor=#A8201A;fontColor=default;fillColor=#FAE5C7;entryX=0;entryY=0;entryDx=0;entryDy=0;" edge="1" parent="1">
          <mxGeometry x="-1" relative="1" as="geometry">
            <mxPoint x="90" y="330" as="sourcePoint" />
            <mxPoint x="330" y="470" as="targetPoint" />
          </mxGeometry>
        </mxCell>
        <mxCell id="b67990E_0dWuY1qgSYMJ-4" value="" style="html=1;whiteSpace=wrap;labelBackgroundColor=none;fillColor=#FAE5C7;strokeColor=#0F8B8D;fontColor=#143642;" vertex="1" parent="1">
          <mxGeometry x="600" y="430" width="110" height="50" as="geometry" />
        </mxCell>
        <mxCell id="b67990E_0dWuY1qgSYMJ-5" value=":Critère" style="html=1;whiteSpace=wrap;labelBackgroundColor=none;fillColor=#FAE5C7;strokeColor=#0F8B8D;fontColor=#143642;" vertex="1" parent="1">
          <mxGeometry x="580" y="450" width="110" height="60" as="geometry" />
        </mxCell>
        <mxCell id="b67990E_0dWuY1qgSYMJ-6" value="&amp;nbsp; &amp;nbsp; 6 : *[ i:= 1..n] check()" style="html=1;verticalAlign=bottom;labelBackgroundColor=none;endArrow=block;endFill=1;endSize=6;align=left;rounded=0;strokeColor=#A8201A;fontColor=#143642;fillColor=#FAE5C7;entryX=0;entryY=0.5;entryDx=0;entryDy=0;" edge="1" parent="1" target="b67990E_0dWuY1qgSYMJ-5">
          <mxGeometry x="-1" relative="1" as="geometry">
            <mxPoint x="440" y="479.5" as="sourcePoint" />
            <mxPoint x="600" y="479.5" as="targetPoint" />
          </mxGeometry>
        </mxCell>
        <mxCell id="b67990E_0dWuY1qgSYMJ-7" value="itération" style="shape=note2;boundedLbl=1;whiteSpace=wrap;html=1;size=25;verticalAlign=top;align=center;strokeColor=#006EAF;fontColor=#ffffff;fillColor=#1ba1e2;labelBackgroundColor=none;" vertex="1" parent="1">
          <mxGeometry x="490" y="320" width="150" height="60" as="geometry" />
        </mxCell>
        <mxCell id="b67990E_0dWuY1qgSYMJ-8" value="" style="endArrow=none;dashed=1;html=1;dashPattern=1 3;strokeWidth=2;rounded=0;strokeColor=#A8201A;fontColor=#143642;fillColor=#FAE5C7;" edge="1" parent="1" target="b67990E_0dWuY1qgSYMJ-7">
          <mxGeometry width="50" height="50" relative="1" as="geometry">
            <mxPoint x="470" y="460" as="sourcePoint" />
            <mxPoint x="520" y="410" as="targetPoint" />
          </mxGeometry>
        </mxCell>
      </root>
    </mxGraphModel>
  </diagram>
</mxfile>
